# xmcd CD database file
#
# Track frame offsets:
#	150
#	33999
#	36386
#	81765
#	83031
#	114534
#	127443
#	176489
#	180092
#	219684
#	223136
#	259292
#	264930
#	303769
#	305979
#
# Disc length: 4757 seconds
#
# Revision: 0
# Processed by: cddbd v1.5.2PL0 Copyright (c) Steve Scherf et al.
# Submitted via: CDex 1.70beta2
#
DISCID=d812930f
DTITLE=Abe Laboriel and Friends - Live in Switzerland
DYEAR=2004
DGENRE=Jazz
TTITLE0=Give Your Love
TTITLE1=Abe's Intro
TTITLE2=Waterwings
TTITLE3=Paul's Intro
TTITLE4=On Eagles Wings
TTITLE5=Abe's Intro
TTITLE6=Guidum
TTITLE7=Abe's Intro
TTITLE8=Dios Te Bendiga
TTITLE9=Abe's Intro
TTITLE10=Quote Unquote
TTITLE11=Paul's Intro
TTITLE12=The East From The West
TTITLE13=Abe's Intro
TTITLE14=Doxology (Al Dios De Bondad)
EXTD=YEAR: 2004
EXTT0=
EXTT1=
EXTT2=
EXTT3=
EXTT4=
EXTT5=
EXTT6=
EXTT7=
EXTT8=
EXTT9=
EXTT10=
EXTT11=
EXTT12=
EXTT13=
EXTT14=
PLAYORDER=
